<svg id="Layer_1" data-name="Layer 1" xmlns="http://www.w3.org/2000/svg" xmlns:xlink="http://www.w3.org/1999/xlink" viewBox="0 0 136.85106 157.59559">
  <defs>
    <style>
      .cls-1 {
        fill: none;
      }

      .cls-2 {
        clip-path: url(#clip-path);
      }

      .cls-3, .cls-6 {
        font-size: 40px;
        font-family: Helvetica-CondensedBlack;
        font-weight: 800;
      }

      .cls-3 {
        fill: #231815;
      }

      .cls-4, .cls-6 {
        fill: #fff;
      }

      .cls-5 {
        fill: #040000;
      }
    </style>
    <clipPath id="clip-path" transform="translate(-132.70213 -343.76611)">
      <rect class="cls-1" x="132.70213" y="328.7234" width="136.85106" height="68.93617"/>
    </clipPath>
  </defs>
  <title>black ver</title>
  <g class="cls-2">
    <text class="cls-3" transform="translate(22.68101 34.99985)">KACA</text>
    <rect class="cls-4" x="157.76433" y="346.90684" width="4.53794" height="15.40423" transform="translate(164.91694 -353.06419) rotate(45)"/>
    <rect class="cls-4" x="190.95582" y="366.77918" width="4.53794" height="15.40423" transform="translate(188.69036 -370.71364) rotate(45)"/>
    <rect class="cls-4" x="236.87071" y="365.63024" width="4.53794" height="15.40423" transform="translate(201.32611 -403.51689) rotate(45)"/>
    <rect class="cls-4" x="216.16859" y="350.82173" width="4.53794" height="15.40423" transform="translate(184.79139 -393.21559) rotate(45)"/>
  </g>
  <rect class="cls-5" y="88.65942" width="136.85106" height="68.93617"/>
  <text class="cls-6" transform="translate(25.08147 137.08496)">KACA</text>
  <rect class="cls-5" x="160.16479" y="448.99194" width="4.53794" height="15.40423" transform="translate(237.80509 -324.86154) rotate(45)"/>
  <rect class="cls-5" x="193.35628" y="468.86428" width="4.53794" height="15.40423" transform="translate(261.57851 -342.51099) rotate(45)"/>
  <rect class="cls-5" x="239.27117" y="467.71535" width="4.53794" height="15.40423" transform="translate(274.21425 -375.31424) rotate(45)"/>
  <rect class="cls-5" x="218.56905" y="452.90684" width="4.53794" height="15.40423" transform="translate(257.67954 -365.01293) rotate(45)"/>
  <rect class="cls-1" y="88.65942" width="136.85106" height="68.93617"/>
</svg>
